<?xml version="1.0" encoding="UTF-8"?>
<svg xmlns="http://www.w3.org/2000/svg" width="300" height="300" viewBox="-1 -1 102 104" version="2.0">
    <g fill="forestgreen">
        <circle r="1" cx="68" cy="85"/>
        <circle r="1" cx="45" cy="71"/>
        <circle r="1" cx="51" cy="76"/>
        <circle r="1" cx="43" cy="25"/>
        <circle r="1" cx="64" cy="69"/>
        <circle r="1" cx="69" cy="77"/>
        <circle r="1" cx="61" cy="65"/>
        <circle r="1" cx="92" cy="63"/>
        <circle r="1" cx="54" cy="67"/>
        <circle r="1" cx="60" cy="61"/>
        <circle r="1" cx="58" cy="75"/>
        <circle r="1" cx="80" cy="93"/>
        <circle r="1" cx="64" cy="73"/>
        <circle r="1" cx="84" cy="78"/>
        <circle r="1" cx="8" cy="20"/>
        <circle r="1" cx="10" cy="17"/>
        <circle r="1" cx="75" cy="68"/>
        <circle r="1" cx="55" cy="77"/>
        <circle r="1" cx="57" cy="75"/>
        <circle r="1" cx="57" cy="66"/>
        <circle r="1" cx="94" cy="55"/>
        <circle r="1" cx="66" cy="76"/>
        <circle r="1" cx="75" cy="64"/>
        <circle r="1" cx="60" cy="58"/>
        <circle r="1" cx="49" cy="53"/>
        <circle r="1" cx="65" cy="69"/>
        <circle r="1" cx="63" cy="71"/>
        <circle r="1" cx="60" cy="78"/>
        <circle r="1" cx="66" cy="71"/>
        <circle r="1" cx="68" cy="76"/>
        <circle r="1" cx="21" cy="88"/>
        <circle r="1" cx="61" cy="73"/>
        <circle r="1" cx="67" cy="71"/>
        <circle r="1" cx="55" cy="71"/>
        <circle r="1" cx="45" cy="54"/>
        <circle r="1" cx="60" cy="79"/>
        <circle r="1" cx="45" cy="68"/>
        <circle r="1" cx="57" cy="61"/>
        <circle r="1" cx="75" cy="82"/>
        <circle r="1" cx="63" cy="65"/>
        <circle r="1" cx="63" cy="69"/>
        <circle r="1" cx="69" cy="53"/>
        <circle r="1" cx="59" cy="75"/>
        <circle r="1" cx="75" cy="66"/>
        <circle r="1" cx="45" cy="65"/>
        <circle r="1" cx="55" cy="69"/>
        <circle r="1" cx="61" cy="76"/>
        <circle r="1" cx="75" cy="74"/>
        <circle r="1" cx="57" cy="85"/>
        <circle r="1" cx="54" cy="71"/>
        <circle r="1" cx="68" cy="75"/>
        <circle r="1" cx="59" cy="69"/>
        <circle r="1" cx="55" cy="66"/>
        <circle r="1" cx="57" cy="77"/>
        <circle r="1" cx="52" cy="85"/>
        <circle r="1" cx="60" cy="80"/>
        <circle r="1" cx="35" cy="43"/>
        <circle r="1" cx="64" cy="97"/>
        <circle r="1" cx="54" cy="73"/>
        <circle r="1" cx="24" cy="69"/>
        <circle r="1" cx="71" cy="53"/>
        <circle r="1" cx="60" cy="75"/>
        <circle r="1" cx="62" cy="66"/>
        <circle r="1" cx="45" cy="61"/>
        <circle r="1" cx="58" cy="76"/>
        <circle r="1" cx="57" cy="67"/>
        <circle r="1" cx="98" cy="75"/>
        <circle r="1" cx="63" cy="62"/>
        <circle r="1" cx="45" cy="84"/>
        <circle r="1" cx="71" cy="85"/>
        <circle r="1" cx="97" cy="39"/>
        <circle r="1" cx="19" cy="46"/>
        <circle r="1" cx="54" cy="74"/>
        <circle r="1" cx="61" cy="59"/>
        <circle r="1" cx="75" cy="54"/>
        <circle r="1" cx="55" cy="70"/>
        <circle r="1" cx="54" cy="77"/>
        <circle r="1" cx="46" cy="53"/>
        <circle r="1" cx="45" cy="56"/>
        <circle r="1" cx="58" cy="77"/>
        <circle r="1" cx="75" cy="53"/>
        <circle r="1" cx="45" cy="60"/>
        <circle r="1" cx="75" cy="69"/>
        <circle r="1" cx="61" cy="67"/>
        <circle r="1" cx="62" cy="64"/>
        <circle r="1" cx="61" cy="75"/>
        <circle r="1" cx="45" cy="55"/>
        <circle r="1" cx="56" cy="73"/>
        <circle r="1" cx="78" cy="28"/>
        <circle r="1" cx="46" cy="85"/>
        <circle r="1" cx="56" cy="69"/>
        <circle r="1" cx="59" cy="85"/>
        <circle r="1" cx="63" cy="77"/>
        <circle r="1" cx="58" cy="64"/>
        <circle r="1" cx="75" cy="3"/>
        <circle r="1" cx="59" cy="67"/>
        <circle r="1" cx="75" cy="85"/>
        <circle r="1" cx="34" cy="87"/>
        <circle r="1" cx="58" cy="72"/>
        <circle r="1" cx="50" cy="53"/>
        <circle r="1" cx="45" cy="67"/>
        <circle r="1" cx="59" cy="70"/>
        <circle r="1" cx="57" cy="53"/>
        <circle r="1" cx="63" cy="73"/>
        <circle r="1" cx="65" cy="74"/>
        <circle r="1" cx="60" cy="62"/>
        <circle r="1" cx="74" cy="3"/>
        <circle r="1" cx="61" cy="61"/>
        <circle r="1" cx="65" cy="71"/>
        <circle r="1" cx="62" cy="69"/>
        <circle r="1" cx="58" cy="66"/>
        <circle r="1" cx="59" cy="80"/>
        <circle r="1" cx="83" cy="50"/>
        <circle r="1" cx="53" cy="71"/>
        <circle r="1" cx="75" cy="65"/>
        <circle r="1" cx="64" cy="62"/>
        <circle r="1" cx="53" cy="72"/>
        <circle r="1" cx="88" cy="11"/>
        <circle r="1" cx="59" cy="76"/>
        <circle r="1" cx="3" cy="9"/>
        <circle r="1" cx="59" cy="74"/>
        <circle r="1" cx="64" cy="76"/>
        <circle r="1" cx="75" cy="78"/>
        <circle r="1" cx="97" cy="66"/>
        <circle r="1" cx="21" cy="20"/>
        <circle r="1" cx="65" cy="53"/>
        <circle r="1" cx="64" cy="75"/>
        <circle r="1" cx="59" cy="66"/>
        <circle r="1" cx="59" cy="65"/>
        <circle r="1" cx="38" cy="67"/>
        <circle r="1" cx="52" cy="72"/>
        <circle r="1" cx="45" cy="59"/>
        <circle r="1" cx="43" cy="65"/>
        <circle r="1" cx="38" cy="55"/>
        <circle r="1" cx="58" cy="70"/>
        <circle r="1" cx="4" cy="3"/>
        <circle r="1" cx="56" cy="68"/>
        <circle r="1" cx="55" cy="100"/>
        <circle r="1" cx="57" cy="74"/>
        <circle r="1" cx="67" cy="75"/>
        <circle r="1" cx="61" cy="69"/>
        <circle r="1" cx="59" cy="31"/>
        <circle r="1" cx="75" cy="79"/>
        <circle r="1" cx="55" cy="85"/>
        <circle r="1" cx="61" cy="79"/>
        <circle r="1" cx="64" cy="70"/>
        <circle r="1" cx="25" cy="75"/>
        <circle r="1" cx="45" cy="69"/>
        <circle r="1" cx="64" cy="53"/>
        <circle r="1" cx="59" cy="53"/>
        <circle r="1" cx="48" cy="19"/>
        <circle r="1" cx="52" cy="53"/>
        <circle r="1" cx="67" cy="53"/>
        <circle r="1" cx="60" cy="59"/>
        <circle r="1" cx="48" cy="97"/>
        <circle r="1" cx="65" cy="67"/>
        <circle r="1" cx="28" cy="88"/>
        <circle r="1" cx="52" cy="75"/>
        <circle r="1" cx="0" cy="14"/>
        <circle r="1" cx="63" cy="75"/>
        <circle r="1" cx="71" cy="11"/>
        <circle r="1" cx="63" cy="85"/>
        <circle r="1" cx="97" cy="36"/>
        <circle r="1" cx="58" cy="68"/>
        <circle r="1" cx="51" cy="85"/>
        <circle r="1" cx="60" cy="69"/>
        <circle r="1" cx="62" cy="68"/>
        <circle r="1" cx="52" cy="77"/>
        <circle r="1" cx="75" cy="61"/>
        <circle r="1" cx="58" cy="63"/>
        <circle r="1" cx="7" cy="46"/>
        <circle r="1" cx="59" cy="73"/>
        <circle r="1" cx="40" cy="34"/>
        <circle r="1" cx="19" cy="39"/>
        <circle r="1" cx="47" cy="53"/>
        <circle r="1" cx="57" cy="68"/>
        <circle r="1" cx="57" cy="70"/>
        <circle r="1" cx="20" cy="10"/>
        <circle r="1" cx="90" cy="58"/>
        <circle r="1" cx="64" cy="71"/>
        <circle r="1" cx="54" cy="85"/>
        <circle r="1" cx="45" cy="66"/>
        <circle r="1" cx="53" cy="85"/>
        <circle r="1" cx="64" cy="66"/>
        <circle r="1" cx="75" cy="42"/>
        <circle r="1" cx="58" cy="73"/>
        <circle r="1" cx="34" cy="38"/>
        <circle r="1" cx="66" cy="85"/>
        <circle r="1" cx="58" cy="74"/>
        <circle r="1" cx="54" cy="72"/>
        <circle r="1" cx="94" cy="65"/>
        <circle r="1" cx="61" cy="63"/>
        <circle r="1" cx="57" cy="65"/>
        <circle r="1" cx="47" cy="85"/>
        <circle r="1" cx="10" cy="37"/>
        <circle r="1" cx="72" cy="5"/>
        <circle r="1" cx="58" cy="61"/>
        <circle r="1" cx="55" cy="92"/>
        <circle r="1" cx="58" cy="62"/>
        <circle r="1" cx="66" cy="74"/>
        <circle r="1" cx="63" cy="93"/>
        <circle r="1" cx="61" cy="47"/>
        <circle r="1" cx="56" cy="65"/>
        <circle r="1" cx="15" cy="99"/>
        <circle r="1" cx="37" cy="34"/>
        <circle r="1" cx="55" cy="73"/>
        <circle r="1" cx="40" cy="91"/>
        <circle r="1" cx="45" cy="70"/>
        <circle r="1" cx="54" cy="70"/>
        <circle r="1" cx="67" cy="16"/>
        <circle r="1" cx="55" cy="74"/>
        <circle r="1" cx="65" cy="76"/>
        <circle r="1" cx="47" cy="29"/>
        <circle r="1" cx="63" cy="53"/>
        <circle r="1" cx="3" cy="67"/>
        <circle r="1" cx="52" cy="76"/>
        <circle r="1" cx="65" cy="70"/>
        <circle r="1" cx="67" cy="74"/>
        <circle r="1" cx="24" cy="7"/>
        <circle r="1" cx="57" cy="69"/>
        <circle r="1" cx="81" cy="41"/>
        <circle r="1" cx="62" cy="76"/>
        <circle r="1" cx="99" cy="0"/>
        <circle r="1" cx="25" cy="88"/>
        <circle r="1" cx="67" cy="77"/>
        <circle r="1" cx="61" cy="80"/>
        <circle r="1" cx="51" cy="77"/>
        <circle r="1" cx="60" cy="60"/>
        <circle r="1" cx="66" cy="77"/>
        <circle r="1" cx="96" cy="72"/>
        <circle r="1" cx="75" cy="57"/>
        <circle r="1" cx="64" cy="77"/>
        <circle r="1" cx="67" cy="85"/>
        <circle r="1" cx="62" cy="63"/>
        <circle r="1" cx="23" cy="62"/>
        <circle r="1" cx="60" cy="63"/>
        <circle r="1" cx="20" cy="57"/>
        <circle r="1" cx="3" cy="8"/>
        <circle r="1" cx="60" cy="76"/>
        <circle r="1" cx="59" cy="64"/>
        <circle r="1" cx="32" cy="78"/>
        <circle r="1" cx="63" cy="61"/>
        <circle r="1" cx="45" cy="76"/>
        <circle r="1" cx="58" cy="67"/>
        <circle r="1" cx="56" cy="77"/>
        <circle r="1" cx="60" cy="72"/>
        <circle r="1" cx="75" cy="63"/>
        <circle r="1" cx="61" cy="71"/>
        <circle r="1" cx="65" cy="75"/>
        <circle r="1" cx="39" cy="32"/>
        <circle r="1" cx="45" cy="74"/>
        <circle r="1" cx="33" cy="10"/>
        <circle r="1" cx="88" cy="85"/>
        <circle r="1" cx="55" cy="14"/>
        <circle r="1" cx="63" cy="66"/>
        <circle r="1" cx="29" cy="21"/>
        <circle r="1" cx="65" cy="66"/>
        <circle r="1" cx="45" cy="85"/>
        <circle r="1" cx="32" cy="77"/>
        <circle r="1" cx="45" cy="78"/>
        <circle r="1" cx="75" cy="62"/>
        <circle r="1" cx="13" cy="35"/>
        <circle r="1" cx="27" cy="26"/>
        <circle r="1" cx="69" cy="76"/>
        <circle r="1" cx="65" cy="85"/>
        <circle r="1" cx="74" cy="85"/>
        <circle r="1" cx="27" cy="16"/>
        <circle r="1" cx="56" cy="75"/>
        <circle r="1" cx="62" cy="70"/>
        <circle r="1" cx="59" cy="68"/>
        <circle r="1" cx="70" cy="95"/>
        <circle r="1" cx="60" cy="68"/>
        <circle r="1" cx="52" cy="23"/>
        <circle r="1" cx="4" cy="30"/>
        <circle r="1" cx="68" cy="53"/>
        <circle r="1" cx="81" cy="71"/>
        <circle r="1" cx="75" cy="84"/>
        <circle r="1" cx="61" cy="53"/>
        <circle r="1" cx="87" cy="76"/>
        <circle r="1" cx="49" cy="85"/>
        <circle r="1" cx="57" cy="62"/>
        <circle r="1" cx="3" cy="77"/>
        <circle r="1" cx="45" cy="72"/>
        <circle r="1" cx="56" cy="71"/>
        <circle r="1" cx="57" cy="73"/>
        <circle r="1" cx="75" cy="75"/>
        <circle r="1" cx="55" cy="72"/>
        <circle r="1" cx="45" cy="80"/>
        <circle r="1" cx="25" cy="97"/>
        <circle r="1" cx="61" cy="74"/>
        <circle r="1" cx="19" cy="17"/>
        <circle r="1" cx="56" cy="72"/>
        <circle r="1" cx="56" cy="74"/>
        <circle r="1" cx="61" cy="62"/>
        <circle r="1" cx="59" cy="77"/>
        <circle r="1" cx="96" cy="10"/>
        <circle r="1" cx="60" cy="85"/>
        <circle r="1" cx="13" cy="70"/>
        <circle r="1" cx="60" cy="73"/>
        <circle r="1" cx="61" cy="85"/>
        <circle r="1" cx="0" cy="22"/>
        <circle r="1" cx="53" cy="53"/>
        <circle r="1" cx="62" cy="53"/>
        <circle r="1" cx="89" cy="95"/>
        <circle r="1" cx="63" cy="70"/>
        <circle r="1" cx="61" cy="66"/>
        <circle r="1" cx="45" cy="63"/>
        <circle r="1" cx="60" cy="64"/>
        <circle r="1" cx="64" cy="72"/>
        <circle r="1" cx="41" cy="59"/>
        <circle r="1" cx="65" cy="72"/>
        <circle r="1" cx="69" cy="24"/>
        <circle r="1" cx="60" cy="77"/>
        <circle r="1" cx="17" cy="42"/>
        <circle r="1" cx="70" cy="53"/>
        <circle r="1" cx="66" cy="70"/>
        <circle r="1" cx="61" cy="77"/>
        <circle r="1" cx="45" cy="79"/>
        <circle r="1" cx="48" cy="53"/>
        <circle r="1" cx="75" cy="83"/>
        <circle r="1" cx="66" cy="53"/>
        <circle r="1" cx="58" cy="18"/>
        <circle r="1" cx="60" cy="65"/>
        <circle r="1" cx="62" cy="61"/>
        <circle r="1" cx="58" cy="69"/>
        <circle r="1" cx="60" cy="67"/>
        <circle r="1" cx="53" cy="76"/>
        <circle r="1" cx="48" cy="85"/>
        <circle r="1" cx="55" cy="75"/>
        <circle r="1" cx="66" cy="24"/>
        <circle r="1" cx="47" cy="97"/>
        <circle r="1" cx="57" cy="72"/>
        <circle r="1" cx="98" cy="95"/>
        <circle r="1" cx="65" cy="77"/>
        <circle r="1" cx="62" cy="65"/>
        <circle r="1" cx="64" cy="68"/>
        <circle r="1" cx="16" cy="7"/>
        <circle r="1" cx="60" cy="66"/>
        <circle r="1" cx="63" cy="64"/>
        <circle r="1" cx="45" cy="81"/>
        <circle r="1" cx="13" cy="24"/>
        <circle r="1" cx="66" cy="72"/>
        <circle r="1" cx="74" cy="50"/>
        <circle r="1" cx="66" cy="73"/>
        <circle r="1" cx="25" cy="11"/>
        <circle r="1" cx="66" cy="75"/>
        <circle r="1" cx="25" cy="38"/>
        <circle r="1" cx="63" cy="68"/>
        <circle r="1" cx="74" cy="53"/>
        <circle r="1" cx="75" cy="73"/>
        <circle r="1" cx="56" cy="70"/>
        <circle r="1" cx="75" cy="55"/>
        <circle r="1" cx="60" cy="74"/>
        <circle r="1" cx="75" cy="71"/>
        <circle r="1" cx="73" cy="53"/>
        <circle r="1" cx="69" cy="85"/>
        <circle r="1" cx="85" cy="38"/>
        <circle r="1" cx="75" cy="77"/>
        <circle r="1" cx="63" cy="74"/>
        <circle r="1" cx="64" cy="85"/>
        <circle r="1" cx="17" cy="57"/>
        <circle r="1" cx="85" cy="44"/>
        <circle r="1" cx="60" cy="53"/>
        <circle r="1" cx="55" cy="53"/>
        <circle r="1" cx="57" cy="64"/>
        <circle r="1" cx="60" cy="71"/>
        <circle r="1" cx="61" cy="39"/>
        <circle r="1" cx="97" cy="22"/>
        <circle r="1" cx="45" cy="73"/>
        <circle r="1" cx="50" cy="85"/>
        <circle r="1" cx="73" cy="85"/>
        <circle r="1" cx="72" cy="85"/>
        <circle r="1" cx="56" cy="67"/>
        <circle r="1" cx="72" cy="53"/>
        <circle r="1" cx="56" cy="85"/>
        <circle r="1" cx="45" cy="83"/>
        <circle r="1" cx="68" cy="77"/>
        <circle r="1" cx="62" cy="73"/>
        <circle r="1" cx="57" cy="76"/>
        <circle r="1" cx="45" cy="77"/>
        <circle r="1" cx="45" cy="62"/>
        <circle r="1" cx="59" cy="78"/>
        <circle r="1" cx="45" cy="75"/>
        <circle r="1" cx="55" cy="76"/>
        <circle r="1" cx="50" cy="77"/>
        <circle r="1" cx="36" cy="87"/>
        <circle r="1" cx="58" cy="65"/>
        <circle r="1" cx="53" cy="75"/>
        <circle r="1" cx="69" cy="33"/>
        <circle r="1" cx="58" cy="71"/>
        <circle r="1" cx="59" cy="72"/>
        <circle r="1" cx="60" cy="70"/>
        <circle r="1" cx="90" cy="45"/>
        <circle r="1" cx="90" cy="21"/>
        <circle r="1" cx="62" cy="71"/>
        <circle r="1" cx="45" cy="82"/>
        <circle r="1" cx="41" cy="87"/>
        <circle r="1" cx="63" cy="5"/>
        <circle r="1" cx="0" cy="59"/>
        <circle r="1" cx="70" cy="77"/>
        <circle r="1" cx="75" cy="81"/>
        <circle r="1" cx="89" cy="22"/>
        <circle r="1" cx="62" cy="89"/>
        <circle r="1" cx="75" cy="76"/>
        <circle r="1" cx="66" cy="67"/>
        <circle r="1" cx="5" cy="83"/>
        <circle r="1" cx="58" cy="53"/>
        <circle r="1" cx="45" cy="64"/>
        <circle r="1" cx="81" cy="22"/>
        <circle r="1" cx="65" cy="73"/>
        <circle r="1" cx="54" cy="75"/>
        <circle r="1" cx="60" cy="6"/>
        <circle r="1" cx="77" cy="45"/>
        <circle r="1" cx="62" cy="77"/>
        <circle r="1" cx="15" cy="74"/>
        <circle r="1" cx="89" cy="17"/>
        <circle r="1" cx="70" cy="85"/>
        <circle r="1" cx="63" cy="67"/>
        <circle r="1" cx="54" cy="53"/>
        <circle r="1" cx="34" cy="57"/>
        <circle r="1" cx="28" cy="70"/>
        <circle r="1" cx="18" cy="48"/>
        <circle r="1" cx="75" cy="60"/>
        <circle r="1" cx="91" cy="70"/>
        <circle r="1" cx="45" cy="53"/>
        <circle r="1" cx="58" cy="60"/>
        <circle r="1" cx="75" cy="28"/>
        <circle r="1" cx="63" cy="72"/>
        <circle r="1" cx="7" cy="100"/>
        <circle r="1" cx="27" cy="53"/>
        <circle r="1" cx="68" cy="72"/>
        <circle r="1" cx="16" cy="94"/>
        <circle r="1" cx="22" cy="24"/>
        <circle r="1" cx="33" cy="79"/>
        <circle r="1" cx="57" cy="71"/>
        <circle r="1" cx="14" cy="86"/>
        <circle r="1" cx="47" cy="93"/>
        <circle r="1" cx="43" cy="94"/>
        <circle r="1" cx="64" cy="65"/>
        <circle r="1" cx="61" cy="60"/>
        <circle r="1" cx="75" cy="72"/>
        <circle r="1" cx="62" cy="75"/>
        <circle r="1" cx="48" cy="51"/>
        <circle r="1" cx="59" cy="62"/>
        <circle r="1" cx="27" cy="17"/>
        <circle r="1" cx="61" cy="70"/>
        <circle r="1" cx="32" cy="76"/>
        <circle r="1" cx="78" cy="34"/>
        <circle r="1" cx="67" cy="72"/>
        <circle r="1" cx="43" cy="98"/>
        <circle r="1" cx="63" cy="76"/>
        <circle r="1" cx="59" cy="63"/>
        <circle r="1" cx="45" cy="57"/>
        <circle r="1" cx="59" cy="59"/>
        <circle r="1" cx="55" cy="67"/>
        <circle r="1" cx="53" cy="74"/>
        <circle r="1" cx="10" cy="68"/>
        <circle r="1" cx="62" cy="72"/>
        <circle r="1" cx="75" cy="59"/>
        <circle r="1" cx="75" cy="58"/>
        <circle r="1" cx="94" cy="36"/>
        <circle r="1" cx="62" cy="74"/>
        <circle r="1" cx="61" cy="68"/>
        <circle r="1" cx="51" cy="53"/>
        <circle r="1" cx="84" cy="43"/>
        <circle r="1" cx="53" cy="77"/>
        <circle r="1" cx="61" cy="72"/>
        <circle r="1" cx="59" cy="61"/>
        <circle r="1" cx="75" cy="70"/>
        <circle r="1" cx="59" cy="79"/>
        <circle r="1" cx="59" cy="60"/>
        <circle r="1" cx="27" cy="47"/>
        <circle r="1" cx="62" cy="60"/>
        <circle r="1" cx="56" cy="62"/>
        <circle r="1" cx="61" cy="64"/>
        <circle r="1" cx="64" cy="67"/>
        <circle r="1" cx="62" cy="62"/>
        <circle r="1" cx="28" cy="10"/>
        <circle r="1" cx="62" cy="67"/>
        <circle r="1" cx="6" cy="84"/>
        <circle r="1" cx="62" cy="85"/>
        <circle r="1" cx="75" cy="67"/>
        <circle r="1" cx="54" cy="76"/>
        <circle r="1" cx="75" cy="56"/>
        <circle r="1" cx="56" cy="66"/>
        <circle r="1" cx="71" cy="35"/>
        <circle r="1" cx="6" cy="83"/>
        <circle r="1" cx="73" cy="44"/>
        <circle r="1" cx="67" cy="76"/>
        <circle r="1" cx="56" cy="76"/>
        <circle r="1" cx="45" cy="58"/>
        <circle r="1" cx="64" cy="74"/>
        <circle r="1" cx="56" cy="53"/>
        <circle r="1" cx="61" cy="78"/>
        <circle r="1" cx="16" cy="35"/>
        <circle r="1" cx="59" cy="71"/>
        <circle r="1" cx="58" cy="85"/>
        <circle r="1" cx="17" cy="60"/>
        <circle r="1" cx="75" cy="80"/>
        <circle r="1" cx="82" cy="37"/>
    </g>
</svg>
